<?xml version="1.0" encoding="UTF-8"?>
<svg id="Layer_2" data-name="Layer 2" xmlns="http://www.w3.org/2000/svg" viewBox="0 0 99.12 26.84">
  <defs>
    <style>
      .cls-1 {
        fill: #4d4d4c;
      }

      .cls-1, .cls-2, .cls-3 {
        stroke-width: 0px;
      }

      .cls-2 {
        fill: #41d496;
      }

      .cls-3 {
        fill: #fff;
      }
    </style>
  </defs>
  <g id="Layer_1-2" data-name="Layer 1">
    <g>
      <path class="cls-2" d="m25.23,19.61c-.6-.21-1.65-1.23-2.59-3.59-.42-1.04-.39-1.41-.5-2.72-.53-6.37-4.41-11.43-10.81-11.43S0,6.9,0,13.29s5.18,11.57,11.57,11.57c4.19,0,6.6-1.53,9.34-3.8,1.47-1.22,4.32-1.46,4.32-1.46Z"/>
      <g>
        <rect class="cls-3" x="11.47" y="8.45" width="4.91" height="2.47" rx="1.06" ry="1.06"/>
        <rect class="cls-3" x="3.65" y="8.45" width="6.41" height="2.47" rx="1.06" ry="1.06"/>
        <rect class="cls-3" x="8.97" y="16.82" width="6.41" height="2.47" rx="1.06" ry="1.06"/>
        <rect class="cls-3" x="6.34" y="12.63" width="3.22" height="2.47" rx="1.06" ry="1.06"/>
        <rect class="cls-3" x="11.1" y="12.63" width="8.14" height="2.47" rx="1.06" ry="1.06"/>
      </g>
    </g>
    <g>
      <path class="cls-1" d="m24.71,13.39c0-3.73,3.01-6.74,6.71-6.74,2.42,0,4.64,1.29,5.85,3.36.38.64.13,1.45-.48,1.83-.64.35-1.45.13-1.82-.48-.73-1.26-2.07-2.04-3.54-2.04-2.23,0-4.08,1.83-4.08,4.08s1.85,4.08,4.08,4.08c1.4,0,2.68-.7,3.44-1.88.4-.62,1.23-.78,1.85-.4.62.4.78,1.23.38,1.85-1.23,1.93-3.36,3.09-5.66,3.09-3.7,0-6.71-3.03-6.71-6.74Z"/>
      <path class="cls-1" d="m38.99,13.37c0-3.73,3.03-6.74,6.74-6.74s6.74,3.01,6.74,6.74-3.01,6.74-6.74,6.74-6.74-3.03-6.74-6.74Zm2.66,0c0,2.23,1.83,4.08,4.08,4.08s4.08-1.85,4.08-4.08-1.82-4.08-4.08-4.08-4.08,1.82-4.08,4.08Z"/>
      <path class="cls-1" d="m67.52,13.37v5.4c0,.75-.59,1.34-1.34,1.34s-1.32-.59-1.32-1.34v-5.4c0-2.25-1.82-4.08-4.08-4.08s-4.08,1.82-4.08,4.08v5.4c0,.75-.59,1.34-1.34,1.34s-1.32-.59-1.32-1.34v-5.4c0-3.73,3.03-6.74,6.74-6.74s6.74,3.01,6.74,6.74Z"/>
      <path class="cls-1" d="m71.79,18.84v6.68c0,.73-.59,1.32-1.32,1.32s-1.34-.59-1.34-1.32v-12.05c0-3.7,3.03-6.74,6.74-6.74s6.74,3.03,6.74,6.74-3.01,6.74-6.74,6.74c-1.53,0-2.95-.51-4.08-1.37Zm0-5.37v.03c0,2.23,1.82,4.05,4.08,4.05s4.08-1.82,4.08-4.08-1.83-4.08-4.08-4.08-4.08,1.83-4.08,4.08Z"/>
      <path class="cls-1" d="m84.11,18.79V1.32c0-.72.59-1.32,1.34-1.32s1.32.59,1.32,1.32v17.47c0,.75-.59,1.34-1.32,1.34s-1.34-.59-1.34-1.34Z"/>
      <path class="cls-1" d="m99.12,8.05v13.23c0,3.03-2.5,5.53-5.56,5.53-2.12,0-4.03-1.21-4.97-3.11-.32-.64-.05-1.45.62-1.77.64-.32,1.45-.03,1.74.62.51.99,1.5,1.61,2.6,1.61,1.61,0,2.9-1.29,2.9-2.87v-1.93c-.8.48-1.75.75-2.77.75-2.95,0-5.37-2.39-5.39-5.34v-6.71c0-.73.59-1.32,1.32-1.32s1.32.59,1.32,1.32v6.66c0,1.53,1.26,2.77,2.76,2.77s2.77-1.24,2.77-2.77v-6.66c0-.73.59-1.32,1.32-1.32s1.34.59,1.34,1.32Z"/>
    </g>
  </g>
</svg>